<svg width="181" height="150" viewBox="0 0 181 150" fill="none" xmlns="http://www.w3.org/2000/svg">
<g clip-path="url(#clip0)">
<path opacity="0.8" d="M168.931 82.886C161.983 94.1246 163.285 109.435 166.336 121.508C167.357 125.55 168.534 129.817 167.661 134.34C166.593 139.871 162.701 144.215 158.762 146.703C151.58 151.226 143.38 151.101 137.408 146.371C132.252 142.286 128.856 135.161 123.59 131.294C114.787 124.823 102.698 128.745 92.2008 134.793C84.7777 139.062 76.6072 144.494 69.7461 141.419C64.9191 139.259 61.909 133.166 60.5042 126.535C59.8261 123.334 59.4159 119.837 57.8612 117.398C56.9359 115.948 55.6641 114.978 54.3454 114.182C42.3107 106.925 26.0278 112.992 14.4221 104.775C6.58314 99.227 2.12703 87.7673 0.662263 75.5135C-0.802504 63.2596 0.401901 50.1479 1.90975 37.2385C2.98304 28.0603 4.43469 18.2415 9.25232 10.7771C14.349 2.88201 22.3828 -0.648793 29.3657 0.100448C36.3486 0.84969 42.4119 5.27396 47.6378 10.6816C54.1693 17.4398 60.0602 26.071 68.5136 28.2513C74.2715 29.7367 80.5595 28.0172 86.6827 27.045C96.9061 25.4192 106.987 25.8856 116.997 26.4962C126.58 27.0806 136.221 27.8074 145.15 31.179C151.468 33.5672 156.317 38.5384 162.214 41.7714C166.057 43.8786 170.394 44.1465 173.975 46.9561C178.386 50.4176 182.203 56.8068 180.437 64.8836C178.753 72.5671 172.617 76.922 168.931 82.886Z" fill="#C0E1FF"/>
<path d="M124.466 57.4818C124.466 57.4818 143.384 41.6297 147.591 33.6372C151.798 25.6447 157.153 18.7573 157.153 18.7573" stroke="#3D3E40" stroke-width="2" stroke-miterlimit="10"/>
<path d="M154.666 36.6248L146.482 34.7798C146.482 34.7798 148.414 43.411 154.666 36.6248Z" fill="#4597E3"/>
<path d="M142.161 27.8137L146.87 34.8659C146.87 34.8659 137.664 35.5309 142.161 27.8137Z" fill="#4597E3"/>
<path d="M157.886 29.9959L150.406 28.6847C150.406 28.6847 155.104 35.8306 157.886 29.9959Z" fill="#4597E3"/>
<path d="M146.818 23.6929L150.502 28.518C150.502 28.518 143.98 29.1361 146.818 23.6929Z" fill="#4597E3"/>
<path d="M154.274 22.732C154.274 22.732 160.643 23.0354 161.392 23.6442C162.141 24.253 160.443 27.8212 158.021 27.2387C155.599 26.6562 154.274 22.732 154.274 22.732Z" fill="#4597E3"/>
<path d="M151.729 17.0396C151.729 17.0396 154.331 21.7804 154.233 22.6833C154.136 23.5861 150.268 24.5995 149.487 21.1848C148.706 17.7701 151.729 17.0396 151.729 17.0396Z" fill="#4597E3"/>
<path d="M159.82 20.6604C160.114 19.7278 159.597 18.733 158.664 18.4384C157.732 18.1439 156.737 18.6612 156.442 19.5939C156.148 20.5265 156.665 21.5213 157.598 21.8158C158.53 22.1104 159.525 21.5931 159.82 20.6604Z" fill="#F5D624"/>
<path d="M157.047 18.838C157.342 17.9053 156.825 16.9105 155.892 16.616C154.959 16.3215 153.965 16.8388 153.67 17.7714C153.375 18.7041 153.893 19.6989 154.825 19.9934C155.758 20.2879 156.753 19.7706 157.047 18.838Z" fill="#F5D624"/>
<path d="M65.4575 119.622C65.4575 119.622 68.4938 110.59 49.2458 99.7015C49.2458 99.7015 29.7018 94.0017 31.7004 74.4278C31.7004 74.4278 9.17071 90.9335 24.4159 111.959C39.6611 132.985 52.8196 128.396 52.8196 128.396L65.4575 119.622Z" fill="#4597E3"/>
<path d="M59.589 123.702C59.589 123.702 50.1973 113.551 41.1952 109.627C39.3969 108.818 37.7445 107.717 36.3045 106.37C30.5653 101.125 28.0629 93.2112 29.5426 85.5783L31.706 74.4278" stroke="#3D3E40" stroke-width="2" stroke-miterlimit="10"/>
<path d="M143.045 6.21872H36.1641V130.317H143.045V6.21872Z" fill="#C0E1FF"/>
<path d="M141.801 7.66287H37.4096V128.87H141.801V7.66287Z" fill="white"/>
<path d="M70.1046 21.3253H43.7145V23.4269H70.1046V21.3253Z" fill="#C0E1FF"/>
<path d="M88.787 26.4632H43.7145V28.5648H88.787V26.4632Z" fill="#C0E1FF"/>
<path d="M136.802 19.3173H118.073V35.4785H136.802V19.3173Z" fill="white"/>
<path d="M136.703 19.411V35.3848H118.159V19.411H136.703ZM136.89 19.2237H117.972V35.5721H136.89V19.2237Z" fill="#C0E1FF"/>
<path d="M117.886 19.3173H99.1565V35.4785H117.886V19.3173Z" fill="white"/>
<path d="M117.784 19.411V35.3848H99.2407V19.411H117.784ZM117.972 19.2237H99.0534V35.5721H117.972V19.2237Z" fill="#C0E1FF"/>
<path d="M136.802 35.6658H118.073V51.8269H136.802V35.6658Z" fill="white"/>
<path d="M136.703 35.7594V51.7333H118.159V35.7594H136.703ZM136.89 35.5721H117.972V51.9206H136.89V35.5721Z" fill="#C0E1FF"/>
<path d="M117.886 35.6658H99.1565V51.8269H117.886V35.6658Z" fill="white"/>
<path d="M117.784 35.7594V51.7333H99.2407V35.7594H117.784ZM117.972 35.5721H99.0534V51.9206H117.972V35.5721Z" fill="#C0E1FF"/>
<path d="M98.9691 35.6658H80.24V51.8269H98.9691V35.6658Z" fill="white"/>
<path d="M98.8755 35.7594V51.7333H80.3318V35.7594H98.8755ZM99.0628 35.5721H80.1445V51.9206H99.0628V35.5721Z" fill="#C0E1FF"/>
<path d="M80.0527 35.6658H61.3235V51.8269H80.0527V35.6658Z" fill="white"/>
<path d="M79.9591 35.7594V51.7333H61.4153V35.7594H79.9591ZM80.1464 35.5721H61.228V51.9206H80.1464V35.5721Z" fill="#C0E1FF"/>
<path d="M61.1362 35.6658H42.407V51.8269H61.1362V35.6658Z" fill="white"/>
<path d="M61.0426 35.7594V51.7333H42.4988V35.7594H61.0426ZM61.2299 35.5721H42.3115V51.9206H61.2299V35.5721Z" fill="#C0E1FF"/>
<path d="M136.802 52.0123H118.073V68.1735H136.802V52.0123Z" fill="white"/>
<path d="M136.703 52.1079V68.0817H118.159V52.1079H136.703ZM136.89 51.9206H117.972V68.269H136.89V51.9206Z" fill="#C0E1FF"/>
<path d="M117.886 52.0123H99.1565V68.1735H117.886V52.0123Z" fill="white"/>
<path d="M117.784 52.1079V68.0817H99.2407V52.1079H117.784ZM117.972 51.9206H99.0534V68.269H117.972V51.9206Z" fill="#C0E1FF"/>
<path d="M98.9691 52.0123H80.24V68.1735H98.9691V52.0123Z" fill="white"/>
<path d="M98.8755 52.1079V68.0817H80.3318V52.1079H98.8755ZM99.0628 51.9206H80.1445V68.269H99.0628V51.9206Z" fill="#C0E1FF"/>
<path d="M80.0527 52.0123H61.3235V68.1735H80.0527V52.0123Z" fill="white"/>
<path d="M79.9591 52.1079V68.0817H61.4153V52.1079H79.9591ZM80.1464 51.9206H61.228V68.269H80.1464V51.9206Z" fill="#C0E1FF"/>
<path d="M61.1362 52.0123H42.407V68.1735H61.1362V52.0123Z" fill="white"/>
<path d="M61.0426 52.1079V68.0817H42.4988V52.1079H61.0426ZM61.2299 51.9206H42.3115V68.269H61.2299V51.9206Z" fill="#C0E1FF"/>
<path d="M136.802 68.3608H118.073V84.5219H136.802V68.3608Z" fill="white"/>
<path d="M136.703 68.4544V84.4283H118.159V68.4544H136.703ZM136.89 68.2671H117.972V84.6156H136.89V68.2671Z" fill="#C0E1FF"/>
<path d="M117.886 68.3608H99.1565V84.5219H117.886V68.3608Z" fill="white"/>
<path d="M117.784 68.4544V84.4283H99.2407V68.4544H117.784ZM117.972 68.2671H99.0534V84.6156H117.972V68.2671Z" fill="#C0E1FF"/>
<path d="M98.9691 68.3608H80.24V84.5219H98.9691V68.3608Z" fill="white"/>
<path d="M98.8755 68.4544V84.4283H80.3318V68.4544H98.8755ZM99.0628 68.2671H80.1445V84.6156H99.0628V68.2671Z" fill="#C0E1FF"/>
<path d="M80.0527 68.3608H61.3235V84.5219H80.0527V68.3608Z" fill="white"/>
<path d="M79.9591 68.4544V84.4283H61.4153V68.4544H79.9591ZM80.1464 68.2671H61.228V84.6156H80.1464V68.2671Z" fill="#C0E1FF"/>
<path d="M61.1362 68.3608H42.407V84.5219H61.1362V68.3608Z" fill="white"/>
<path d="M61.0426 68.4544V84.4283H42.4988V68.4544H61.0426ZM61.2299 68.2671H42.3115V84.6156H61.2299V68.2671Z" fill="#C0E1FF"/>
<path d="M136.802 84.7074H118.073V100.868H136.802V84.7074Z" fill="white"/>
<path d="M136.703 84.8029V100.775H118.159V84.8029H136.703ZM136.89 84.6156H117.972V100.962H136.89V84.6156Z" fill="#C0E1FF"/>
<path d="M117.886 84.7074H99.1565V100.868H117.886V84.7074Z" fill="white"/>
<path d="M117.784 84.8029V100.775H99.2407V84.8029H117.784ZM117.972 84.6156H99.0534V100.962H117.972V84.6156Z" fill="#C0E1FF"/>
<path d="M98.9691 84.7074H80.24V100.868H98.9691V84.7074Z" fill="white"/>
<path d="M98.8755 84.8029V100.775H80.3318V84.8029H98.8755ZM99.0628 84.6156H80.1445V100.962H99.0628V84.6156Z" fill="#C0E1FF"/>
<path d="M80.0527 84.7074H61.3235V100.868H80.0527V84.7074Z" fill="white"/>
<path d="M79.9591 84.8029V100.775H61.4153V84.8029H79.9591ZM80.1464 84.6156H61.228V100.962H80.1464V84.6156Z" fill="#C0E1FF"/>
<path d="M61.1362 84.7074H42.407V100.868H61.1362V84.7074Z" fill="white"/>
<path d="M61.0426 84.8029V100.775H42.4988V84.8029H61.0426ZM61.2299 84.6156H42.3115V100.962H61.2299V84.6156Z" fill="#C0E1FF"/>
<path d="M136.802 101.056H118.073V117.217H136.802V101.056Z" fill="white"/>
<path d="M136.703 101.149V117.123H118.159V101.149H136.703ZM136.89 100.962H117.972V117.311H136.89V100.962Z" fill="#C0E1FF"/>
<path d="M117.886 101.056H99.1565V117.217H117.886V101.056Z" fill="white"/>
<path d="M117.784 101.149V117.123H99.2407V101.149H117.784ZM117.972 100.962H99.0534V117.311H117.972V100.962Z" fill="#C0E1FF"/>
<path d="M98.9691 101.056H80.24V117.217H98.9691V101.056Z" fill="white"/>
<path d="M98.8755 101.149V117.123H80.3318V101.149H98.8755ZM99.0628 100.962H80.1445V117.311H99.0628V100.962Z" fill="#C0E1FF"/>
<path d="M80.0527 101.056H61.3235V117.217H80.0527V101.056Z" fill="white"/>
<path d="M79.9591 101.149V117.123H61.4153V101.149H79.9591ZM80.1464 100.962H61.228V117.311H80.1464V100.962Z" fill="#C0E1FF"/>
<path d="M61.1362 101.056H42.407V117.217H61.1362V101.056Z" fill="white"/>
<path d="M61.0426 101.149V117.123H42.4988V101.149H61.0426ZM61.2299 100.962H42.3115V117.311H61.2299V100.962Z" fill="#C0E1FF"/>
<path d="M81.746 132.033C82.2817 131.627 82.7856 131.147 82.9411 130.563C83.0208 130.254 82.9786 129.925 82.8231 129.646C82.6676 129.367 82.4107 129.159 82.1057 129.064C81.3396 128.825 80.521 129.252 79.8991 129.696C79.2773 130.139 78.5674 130.632 77.7544 130.54C78.5954 129.932 78.9963 128.944 78.764 128.047C78.7242 127.854 78.6262 127.677 78.4831 127.541C78.0579 127.167 77.2862 127.33 76.7767 127.622C75.1564 128.559 74.705 130.347 74.6957 131.964C74.5327 131.381 74.6694 130.774 74.6657 130.175C74.6619 129.576 74.4615 128.914 73.8434 128.592C73.4478 128.421 73.0194 128.338 72.5884 128.351C71.8598 128.328 71.0487 128.388 70.5523 128.823C69.9342 129.362 70.0953 130.269 70.6329 130.862C71.1705 131.456 71.989 131.829 72.7401 132.239C73.3133 132.552 73.894 132.917 74.2386 133.412C74.2838 133.477 74.3215 133.548 74.351 133.622H78.9158C79.9213 133.211 80.8719 132.678 81.746 132.033V132.033Z" fill="#4597E3"/>
<path d="M44.8777 39.1909C45.4673 39.1909 45.9453 38.7129 45.9453 38.1233C45.9453 37.5336 45.4673 37.0556 44.8777 37.0556C44.288 37.0556 43.81 37.5336 43.81 38.1233C43.81 38.7129 44.288 39.1909 44.8777 39.1909Z" fill="#D94150"/>
<path d="M47.545 39.1909C48.1346 39.1909 48.6126 38.7129 48.6126 38.1233C48.6126 37.5336 48.1346 37.0556 47.545 37.0556C46.9553 37.0556 46.4773 37.5336 46.4773 38.1233C46.4773 38.7129 46.9553 39.1909 47.545 39.1909Z" fill="#F5D624"/>
<path d="M82.5795 55.0187C83.1692 55.0187 83.6472 54.5406 83.6472 53.951C83.6472 53.3613 83.1692 52.8833 82.5795 52.8833C81.9899 52.8833 81.5118 53.3613 81.5118 53.951C81.5118 54.5406 81.9899 55.0187 82.5795 55.0187Z" fill="#4597E3"/>
<path d="M85.2487 55.0187C85.8384 55.0187 86.3164 54.5406 86.3164 53.951C86.3164 53.3613 85.8384 52.8833 85.2487 52.8833C84.659 52.8833 84.181 53.3613 84.181 53.951C84.181 54.5406 84.659 55.0187 85.2487 55.0187Z" fill="#4597E3"/>
<path d="M120.815 39.1909C121.405 39.1909 121.883 38.7129 121.883 38.1233C121.883 37.5336 121.405 37.0556 120.815 37.0556C120.225 37.0556 119.747 37.5336 119.747 38.1233C119.747 38.7129 120.225 39.1909 120.815 39.1909Z" fill="#4597E3"/>
<path d="M123.482 39.1909C124.072 39.1909 124.55 38.7129 124.55 38.1233C124.55 37.5336 124.072 37.0556 123.482 37.0556C122.893 37.0556 122.415 37.5336 122.415 38.1233C122.415 38.7129 122.893 39.1909 123.482 39.1909Z" fill="#4597E3"/>
<path d="M126.152 39.1909C126.741 39.1909 127.219 38.7129 127.219 38.1233C127.219 37.5336 126.741 37.0556 126.152 37.0556C125.562 37.0556 125.084 37.5336 125.084 38.1233C125.084 38.7129 125.562 39.1909 126.152 39.1909Z" fill="#4597E3"/>
<path d="M128.819 39.1909C129.409 39.1909 129.887 38.7129 129.887 38.1233C129.887 37.5336 129.409 37.0556 128.819 37.0556C128.229 37.0556 127.751 37.5336 127.751 38.1233C127.751 38.7129 128.229 39.1909 128.819 39.1909Z" fill="#4597E3"/>
<path d="M120.815 72.2681C121.405 72.2681 121.883 71.7901 121.883 71.2004C121.883 70.6107 121.405 70.1327 120.815 70.1327C120.225 70.1327 119.747 70.6107 119.747 71.2004C119.747 71.7901 120.225 72.2681 120.815 72.2681Z" fill="#4597E3"/>
<path d="M123.482 72.2681C124.072 72.2681 124.55 71.7901 124.55 71.2004C124.55 70.6107 124.072 70.1327 123.482 70.1327C122.893 70.1327 122.415 70.6107 122.415 71.2004C122.415 71.7901 122.893 72.2681 123.482 72.2681Z" fill="#4597E3"/>
<path d="M126.152 72.2681C126.741 72.2681 127.219 71.7901 127.219 71.2004C127.219 70.6107 126.741 70.1327 126.152 70.1327C125.562 70.1327 125.084 70.6107 125.084 71.2004C125.084 71.7901 125.562 72.2681 126.152 72.2681Z" fill="#4597E3"/>
<path d="M128.819 72.2681C129.409 72.2681 129.887 71.7901 129.887 71.2004C129.887 70.6107 129.409 70.1327 128.819 70.1327C128.229 70.1327 127.751 70.6107 127.751 71.2004C127.751 71.7901 128.229 72.2681 128.819 72.2681Z" fill="#4597E3"/>
<path d="M63.7286 55.0187C64.3182 55.0187 64.7962 54.5406 64.7962 53.951C64.7962 53.3613 64.3182 52.8833 63.7286 52.8833C63.1389 52.8833 62.6609 53.3613 62.6609 53.951C62.6609 54.5406 63.1389 55.0187 63.7286 55.0187Z" fill="#F5D624"/>
<path d="M44.8777 71.2023C45.4673 71.2023 45.9453 70.7243 45.9453 70.1346C45.9453 69.545 45.4673 69.067 44.8777 69.067C44.288 69.067 43.81 69.545 43.81 70.1346C43.81 70.7243 44.288 71.2023 44.8777 71.2023Z" fill="#D94150"/>
</g>
<defs>
<clipPath id="clip0">
<rect width="180.874" height="150" fill="white"/>
</clipPath>
</defs>
</svg>
