<?xml version="1.0" standalone="no"?>
<!DOCTYPE svg PUBLIC "-//W3C//DTD SVG 20010904//EN"
 "http://www.w3.org/TR/2001/REC-SVG-20010904/DTD/svg10.dtd">
<svg version="1.0" xmlns="http://www.w3.org/2000/svg"
 width="700.000000pt" height="700.000000pt" viewBox="0 0 700.000000 700.000000"
 preserveAspectRatio="xMidYMid meet">
<metadata>
Created by potrace 1.11, written by Peter Selinger 2001-2013
</metadata>
<g transform="translate(0.000000,700.000000) scale(0.100000,-0.100000)"
fill="#000000" stroke="none">
<path d="M3240 6994 c-19 -2 -80 -9 -135 -14 -225 -24 -472 -78 -710 -157
-560 -185 -1089 -529 -1482 -964 -529 -585 -835 -1289 -904 -2079 -23 -260 -3
-652 47 -920 246 -1334 1259 -2415 2579 -2753 306 -79 505 -102 865 -102 360
0 559 23 865 102 1164 298 2094 1169 2465 2308 126 390 177 744 167 1169 -8
311 -33 502 -104 781 -246 966 -895 1785 -1778 2241 -379 196 -748 312 -1180
370 -104 15 -614 27 -695 18z m455 -584 c610 -46 1154 -257 1627 -631 132
-105 352 -325 456 -457 337 -425 548 -926 617 -1465 22 -173 23 -519 1 -693
-80 -663 -369 -1260 -837 -1725 -724 -720 -1749 -1010 -2736 -774 -1115 267
-1973 1164 -2187 2288 -42 217 -57 450 -46 692 14 290 54 506 145 781 193 580
569 1089 1068 1447 546 391 1230 586 1892 537z"/>
<path d="M3448 6144 c-52 -28 -58 -55 -58 -259 0 -147 3 -192 15 -215 17 -32
61 -60 95 -60 34 0 78 28 95 60 12 23 15 68 15 215 0 205 -6 232 -60 260 -36
19 -67 19 -102 -1z"/>
<path d="M1845 5041 c-78 -36 -125 -111 -125 -198 0 -88 21 -113 303 -365 351
-313 1022 -912 1071 -956 32 -28 41 -45 47 -84 24 -148 157 -277 306 -298 69
-9 147 2 205 30 l47 22 620 -521 c341 -287 632 -526 647 -531 38 -15 76 -4
107 28 36 37 42 79 20 120 -11 20 -257 233 -633 548 -381 320 -615 522 -614
533 1 9 6 45 12 81 13 74 -25 31 448 510 155 157 290 301 300 320 23 44 24
143 1 186 -56 108 -181 151 -290 99 -24 -11 -166 -148 -376 -362 l-339 -345
-114 -1 c-101 -1 -118 1 -141 19 -14 12 -308 272 -652 580 -401 357 -644 567
-673 581 -57 28 -123 29 -177 4z"/>
<path d="M898 3594 c-30 -16 -58 -61 -58 -94 0 -34 28 -78 60 -95 23 -12 68
-15 215 -15 205 0 232 6 260 60 19 37 19 63 0 100 -28 54 -54 60 -262 60 -147
-1 -194 -4 -215 -16z"/>
<path d="M5668 3594 c-30 -16 -58 -61 -58 -94 0 -34 28 -78 60 -95 23 -12 68
-15 215 -15 147 0 192 3 215 15 32 17 60 61 60 95 0 34 -28 78 -60 95 -42 22
-392 21 -432 -1z"/>
<path d="M3448 1374 c-52 -28 -58 -55 -58 -259 0 -147 3 -192 15 -215 17 -32
61 -60 95 -60 34 0 78 28 95 60 12 23 15 68 15 215 0 205 -6 232 -60 260 -36
19 -67 19 -102 -1z"/>
</g>
</svg>
