<svg width="197" height="150" viewBox="0 0 197 150" fill="none" xmlns="http://www.w3.org/2000/svg">
<g clip-path="url(#clip0)">
<path d="M196.77 87.8592C196.768 84.6206 196.046 81.4229 194.654 78.4978C193.263 75.5728 191.238 72.9936 188.726 70.9472C186.214 68.9008 183.278 67.4383 180.13 66.6658C176.983 65.8934 173.702 65.8302 170.527 66.4809C167.352 67.1316 164.362 68.4799 161.773 70.428C159.184 72.3762 157.061 74.8755 155.558 77.7448C154.055 80.6141 153.209 83.7815 153.083 87.0177C152.956 90.2538 153.551 93.4776 154.826 96.4554C154.804 96.4316 154.782 96.4086 154.761 96.3847C155.732 98.6452 157.077 100.726 158.741 102.539C158.746 102.544 158.751 102.549 158.756 102.555C158.89 102.701 159.025 102.846 159.163 102.989C161.16 105.07 163.551 106.734 166.197 107.885C168.842 109.035 171.691 109.649 174.576 109.69L173.837 149.765H176.119L175.657 123.315L178.957 121.579L178.453 120.624L175.636 122.106L175.419 109.688C181.126 109.557 186.556 107.2 190.546 103.121C194.536 99.0412 196.77 93.5634 196.77 87.8592Z" fill="#D0D4D9"/>
<path d="M131.912 77.2168C131.91 73.4214 131.063 69.674 129.433 66.2461C127.803 62.8182 125.429 59.7957 122.486 57.3974C119.542 54.9992 116.101 53.2854 112.412 52.3801C108.723 51.4748 104.879 51.4007 101.159 52.1633C97.4377 52.9259 93.9332 54.5059 90.899 56.789C87.8648 59.0721 85.3768 62.001 83.6153 65.3636C81.8539 68.7262 80.8631 72.4382 80.7147 76.2306C80.5663 80.0231 81.264 83.8011 82.7573 87.2908C82.7323 87.263 82.7064 87.2359 82.6815 87.208C83.819 89.857 85.3958 92.2952 87.3456 94.4197C87.3514 94.4261 87.3574 94.4324 87.3632 94.4388C87.5206 94.6101 87.6788 94.7805 87.8407 94.9475C90.1808 97.3865 92.9826 99.3366 96.0832 100.685C99.1839 102.033 102.522 102.752 105.903 102.801L105.037 149.765H107.711L107.17 118.768L111.037 116.734L110.447 115.614L107.145 117.351L106.891 102.798C113.579 102.645 119.942 99.8826 124.618 95.1018C129.294 90.3211 131.912 83.9017 131.912 77.2168Z" fill="#D0D4D9"/>
<path d="M58.3563 67.2065C58.354 62.8875 57.3903 58.623 55.5348 54.7222C53.6794 50.8213 50.9788 47.3817 47.6287 44.6525C44.2786 41.9234 40.3629 39.973 36.1653 38.9429C31.9676 37.9127 27.5932 37.8284 23.359 38.6962C19.1248 39.564 15.1367 41.362 11.6839 43.9601C8.23098 46.5583 5.39973 49.8913 3.39523 53.7179C1.39074 57.5444 0.263211 61.7686 0.0943351 66.0843C-0.0745403 70.4 0.719468 74.6993 2.41883 78.6705C2.39033 78.6389 2.36089 78.6081 2.33253 78.5763C3.62694 81.5909 5.42137 84.3655 7.64018 86.7831C7.6468 86.7904 7.65361 86.7975 7.66025 86.8048C7.83928 86.9998 8.01933 87.1937 8.20354 87.3837C10.8666 90.1592 14.055 92.3784 17.5834 93.9126C21.1119 95.4467 24.9102 96.2651 28.7578 96.3204L27.7731 149.765H30.8154L30.1997 114.491L34.6005 112.176L33.9292 110.902L30.1716 112.879L29.8825 96.3177C37.4936 96.1434 44.7343 92.9998 50.0556 87.5594C55.3769 82.119 58.3562 74.8138 58.3563 67.2065V67.2065Z" fill="#D0D4D9"/>
<path d="M167.734 38.0869C178.259 38.0869 186.792 29.5609 186.792 19.0435C186.792 8.52604 178.259 0 167.734 0C157.208 0 148.676 8.52604 148.676 19.0435C148.676 29.5609 157.208 38.0869 167.734 38.0869Z" fill="#D94150"/>
<path d="M54.4327 79.7233C75.5279 79.7233 92.6289 62.6355 92.6289 41.5566C92.6289 20.4778 75.5279 3.38995 54.4327 3.38995C33.3376 3.38995 16.2366 20.4778 16.2366 41.5566C16.2366 62.6355 33.3376 79.7233 54.4327 79.7233Z" fill="#4597E3"/>
<path opacity="0.2" d="M26.23 16.0643C22.6672 24.392 22.1838 33.7142 24.8664 42.3652C27.549 51.0162 33.2226 58.4323 40.8735 63.2881C48.5244 68.1439 57.654 70.1231 66.6308 68.872C75.6077 67.621 83.8469 63.2211 89.8761 56.4588C87.6997 61.5467 84.4422 66.1009 80.3294 69.8059C76.2167 73.511 71.3469 76.2783 66.0576 77.916C60.7683 79.5538 55.1858 80.0229 49.697 79.2908C44.2083 78.5588 38.9444 76.6431 34.2701 73.6764C29.5958 70.7098 25.6229 66.7632 22.6266 62.11C19.6303 57.4568 17.6823 52.2083 16.9175 46.7281C16.1527 41.248 16.5895 35.6672 18.1975 30.3724C19.8055 25.0776 22.5463 20.1955 26.23 16.0643Z" fill="#3D3E40"/>
<path d="M54.5376 41.5566H54.6427L56.5315 149.765H52.5439L54.5376 41.5566Z" fill="#3D3E40"/>
<path d="M61.4926 100.497L60.6127 98.8273L54.2987 102.149L55.1787 103.819L61.4926 100.497Z" fill="#3D3E40"/>
<path d="M112.855 148.753C112.855 148.753 112.993 145.868 115.818 146.203Z" fill="#3D3E40"/>
<path d="M112.057 146.007C112.838 146.007 113.471 145.375 113.471 144.595C113.471 143.814 112.838 143.182 112.057 143.182C111.276 143.182 110.643 143.814 110.643 144.595C110.643 145.375 111.276 146.007 112.057 146.007Z" fill="#4597E3"/>
<path d="M112.226 146.974H111.827V149.765H112.226V146.974Z" fill="#3D3E40"/>
<path d="M81.7914 148.659C81.7914 148.659 81.9292 145.774 84.7543 146.109Z" fill="#3D3E40"/>
<path d="M80.9932 145.913C81.7741 145.913 82.4071 145.281 82.4071 144.501C82.4071 143.72 81.7741 143.088 80.9932 143.088C80.2123 143.088 79.5792 143.72 79.5792 144.501C79.5792 145.281 80.2123 145.913 80.9932 145.913Z" fill="#4597E3"/>
<path d="M81.1623 146.88H80.7631V149.671H81.1623V146.88Z" fill="#3D3E40"/>
<path d="M14.8702 148.354C14.8702 148.354 15.008 145.469 17.8331 145.804Z" fill="#3D3E40"/>
<path d="M14.072 145.609C14.8529 145.609 15.4859 144.976 15.4859 144.196C15.4859 143.415 14.8529 142.783 14.072 142.783C13.2911 142.783 12.658 143.415 12.658 144.196C12.658 144.976 13.2911 145.609 14.072 145.609Z" fill="#4597E3"/>
<path d="M14.241 146.575H13.8419V149.367H14.241V146.575Z" fill="#3D3E40"/>
<path d="M38.0194 148.554C38.0194 148.554 38.1572 145.668 40.9823 146.004Z" fill="#3D3E40"/>
<path d="M37.2211 145.808C38.002 145.808 38.6351 145.175 38.6351 144.395C38.6351 143.615 38.002 142.982 37.2211 142.982C36.4402 142.982 35.8072 143.615 35.8072 144.395C35.8072 145.175 36.4402 145.808 37.2211 145.808Z" fill="#4597E3"/>
<path d="M37.3902 146.774H36.991V149.566H37.3902V146.774Z" fill="#3D3E40"/>
<path d="M99.5833 18.4505L102.42 16.1838C100.216 15.9409 99.3109 17.1416 98.9404 18.092C97.219 17.3778 95.3452 18.3138 95.3452 18.3138L101.02 20.3723C100.734 19.6083 100.235 18.9416 99.5833 18.4505Z" fill="#3D3E40"/>
<path d="M142.717 41.5397L145.553 39.273C143.349 39.0301 142.444 40.2308 142.074 41.1812C140.352 40.467 138.478 41.403 138.478 41.403L144.153 43.4615C143.867 42.6975 143.369 42.0308 142.717 41.5397V41.5397Z" fill="#3D3E40"/>
<path d="M96.1942 61.2425L99.0304 58.9758C96.8271 58.7329 95.9218 59.9336 95.5513 60.884C93.8299 60.1698 91.9561 61.1058 91.9561 61.1058L97.6308 63.1644C97.3445 62.4003 96.8462 61.7336 96.1942 61.2425V61.2425Z" fill="#3D3E40"/>
<path d="M151.545 149.801C151.545 149.801 151.683 146.915 154.508 147.251Z" fill="#3D3E40"/>
<path d="M125.004 149.801C125.004 149.801 125.141 146.915 127.966 147.251Z" fill="#3D3E40"/>
<path d="M28.2159 149.801C28.2159 149.801 28.3538 146.915 31.1789 147.251Z" fill="#3D3E40"/>
<path d="M163.519 149.801C163.519 149.801 163.657 146.915 166.482 147.251Z" fill="#3D3E40"/>
<path d="M157.931 149.801C157.931 149.801 158.069 146.915 160.894 147.251Z" fill="#3D3E40"/>
<path d="M146.405 149.801C146.405 149.801 146.267 146.915 143.442 147.251Z" fill="#3D3E40"/>
<path d="M100.505 149.801C100.505 149.801 100.368 146.915 97.5425 147.251Z" fill="#3D3E40"/>
<path d="M62.3891 149.801C62.3891 149.801 62.2512 146.915 59.4261 147.251Z" fill="#3D3E40"/>
<path d="M21.8781 149.801C21.8781 149.801 21.7403 146.915 18.9152 147.251Z" fill="#3D3E40"/>
<path d="M175.541 149.801C175.541 149.801 175.403 146.915 172.578 147.251Z" fill="#3D3E40"/>
<path d="M158.378 150C158.378 150 158.241 147.115 155.416 147.45Z" fill="#3D3E40"/>
<path d="M196.842 149.423H0V149.866H196.842V149.423Z" fill="#3D3E40"/>
</g>
<defs>
<clipPath id="clip0">
<rect width="196.842" height="150" fill="white"/>
</clipPath>
</defs>
</svg>
