<svg width="354" height="246" viewBox="0 0 354 246" fill="none" xmlns="http://www.w3.org/2000/svg">
<g clip-path="url(#clip0)">
<path d="M67.1588 52.8103C78.3248 52.8103 87.3767 43.7492 87.3767 32.5716C87.3767 21.3941 78.3248 12.3329 67.1588 12.3329C55.9928 12.3329 46.9409 21.3941 46.9409 32.5716C46.9409 43.7492 55.9928 52.8103 67.1588 52.8103Z" fill="#D94150"/>
<path d="M165.526 108.505C165.526 156.26 137.166 172.934 102.183 172.934C67.1989 172.934 38.8389 156.26 38.8389 108.505C38.8389 60.751 102.183 0 102.183 0C102.183 0 165.526 60.751 165.526 108.505Z" fill="#E6E9ED"/>
<path d="M99.8751 165.629L100.524 125.663L127.522 76.2189L100.626 119.393L100.917 101.423L119.525 65.6508L100.994 96.6673L101.519 64.3467L121.444 35.8677L101.601 59.2643L101.929 0L99.8694 78.4553L100.039 75.2187L79.7807 44.1785L99.714 81.4316L97.8264 117.528L97.7702 116.57L74.416 83.9049L97.6994 119.955L97.4635 124.469L97.4211 124.537L97.4404 124.908L92.6516 216.487H99.0499L99.8176 169.184L123.043 133.223L99.8751 165.629Z" fill="#3D3E40"/>
<path d="M354 128.064C354 167.153 330.786 180.802 302.15 180.802C273.514 180.802 250.3 167.153 250.3 128.064C250.3 88.9749 302.15 39.2473 302.15 39.2473C302.15 39.2473 354 88.9749 354 128.064Z" fill="#E6E9ED"/>
<path d="M300.261 174.822L300.792 142.108L322.892 101.636L300.876 136.976L301.114 122.267L316.345 92.9854L301.178 118.374L301.607 91.9181L317.916 68.6066L301.674 87.7581L301.943 39.2473L300.257 103.467L300.395 100.817L283.813 75.4094L300.129 105.903L298.584 135.45L298.538 134.665L279.422 107.927L298.48 137.436L298.287 141.131L298.253 141.187L298.268 141.49L294.348 216.452H299.586L300.214 177.733L319.226 148.296L300.261 174.822Z" fill="#3D3E40"/>
<path d="M175.198 224.053C271.957 224.053 350.396 220.084 350.396 215.188C350.396 210.291 271.957 206.322 175.198 206.322C78.4389 206.322 0 210.291 0 215.188C0 220.084 78.4389 224.053 175.198 224.053Z" fill="#3D3E40"/>
<path d="M281.927 231.353C298.5 231.353 311.935 230.673 311.935 229.835C311.935 228.996 298.5 228.316 281.927 228.316C265.355 228.316 251.92 228.996 251.92 229.835C251.92 230.673 265.355 231.353 281.927 231.353Z" fill="#3D3E40"/>
<path d="M173.343 246C189.916 246 203.35 245.32 203.35 244.482C203.35 243.643 189.916 242.963 173.343 242.963C156.77 242.963 143.336 243.643 143.336 244.482C143.336 245.32 156.77 246 173.343 246Z" fill="#3D3E40"/>
<path d="M90.9629 235.67C128.825 235.67 159.519 234.117 159.519 232.201C159.519 230.285 128.825 228.732 90.9629 228.732C53.1006 228.732 22.4071 230.285 22.4071 232.201C22.4071 234.117 53.1006 235.67 90.9629 235.67Z" fill="#3D3E40"/>
<path d="M30.6692 204.053C44.4523 204.053 55.6256 192.869 55.6256 179.071C55.6256 165.274 44.4523 154.089 30.6692 154.089C16.8861 154.089 5.71274 165.274 5.71274 179.071C5.71274 192.869 16.8861 204.053 30.6692 204.053Z" fill="#3D3E40"/>
<path d="M26.6478 198.631L19.0667 198.542L18.9066 212.139L26.4878 212.228L26.6478 198.631Z" fill="#3D3E40"/>
<path d="M41.8102 198.81L34.229 198.721L34.069 212.318L41.6501 212.407L41.8102 198.81Z" fill="#3D3E40"/>
<path d="M31.54 212.446C31.5555 211.136 28.7395 210.041 25.2503 210C21.7612 209.959 18.9202 210.987 18.9047 212.297C18.8893 213.607 21.7053 214.702 25.1945 214.743C28.6836 214.784 31.5246 213.756 31.54 212.446Z" fill="#3D3E40"/>
<path d="M46.7061 212.309C46.7215 210.999 43.9055 209.904 40.4164 209.863C36.9272 209.821 34.0862 210.85 34.0708 212.16C34.0554 213.469 36.8714 214.565 40.3606 214.606C43.8497 214.647 46.6907 213.618 46.7061 212.309Z" fill="#3D3E40"/>
<path d="M31.3754 181.293C36.086 181.293 39.9048 177.47 39.9048 172.755C39.9048 168.039 36.086 164.216 31.3754 164.216C26.6647 164.216 22.846 168.039 22.846 172.755C22.846 177.47 26.6647 181.293 31.3754 181.293Z" fill="white"/>
<path d="M31.3754 175.601C32.9456 175.601 34.2185 174.326 34.2185 172.755C34.2185 171.183 32.9456 169.909 31.3754 169.909C29.8052 169.909 28.5322 171.183 28.5322 172.755C28.5322 174.326 29.8052 175.601 31.3754 175.601Z" fill="#3D3E40"/>
<path d="M6.73572 155.555C4.82708 146.498 11.3756 137.446 21.3623 135.337C31.3489 133.228 40.992 138.861 42.9006 147.918C44.8093 156.975 38.1689 160.229 28.1822 162.337C18.1956 164.446 8.64437 164.612 6.73572 155.555Z" fill="#4597E3"/>
<path d="M68.7383 193.008C68.7383 210.425 58.3957 216.506 45.6363 216.506C45.3407 216.506 45.0456 216.503 44.7509 216.496C44.1597 216.484 43.5742 216.455 42.9957 216.416C31.4806 215.6 22.5342 209.206 22.5342 193.008C22.5342 176.245 43.9331 155.093 45.5405 153.528L45.5434 153.525C45.6053 153.465 45.6363 153.435 45.6363 153.435C45.6363 153.435 68.7383 175.592 68.7383 193.008Z" fill="#4597E3"/>
<path d="M44.7946 213.842L53.244 202.023L44.7734 215.139L44.7509 216.496C44.1597 216.483 43.5742 216.455 42.9957 216.416L43.9064 198.991L43.8994 198.856L43.9148 198.83L44.0007 197.184L35.5089 184.036L44.0274 195.95L44.0472 196.3L44.7354 183.134L37.4655 169.547L44.8241 180.823L45.5405 153.528L45.5434 153.435V153.525L45.4237 175.049L52.6613 166.516L45.3942 176.903L45.2027 188.691L51.9604 177.378L45.1746 190.426L45.0676 196.979L54.8782 181.233L45.031 199.266L44.7946 213.842Z" fill="#3D3E40"/>
<path d="M225.077 203.783C238.86 203.783 250.034 192.598 250.034 178.801C250.034 165.004 238.86 153.819 225.077 153.819C211.294 153.819 200.121 165.004 200.121 178.801C200.121 192.598 211.294 203.783 225.077 203.783Z" fill="#3D3E40"/>
<path d="M227.207 198.657L219.96 200.887L223.951 213.884L231.198 211.655L227.207 198.657Z" fill="#3D3E40"/>
<path d="M241.701 194.199L234.454 196.429L238.444 209.427L245.692 207.197L241.701 194.199Z" fill="#3D3E40"/>
<path d="M230.732 214.445C234.068 213.419 236.46 211.572 236.076 210.32C235.691 209.068 232.676 208.884 229.34 209.911C226.005 210.937 223.613 212.783 223.997 214.036C224.381 215.288 227.397 215.471 230.732 214.445Z" fill="#3D3E40"/>
<path d="M245.134 209.683C248.469 208.657 250.862 206.81 250.477 205.558C250.093 204.306 247.077 204.123 243.742 205.149C240.406 206.175 238.014 208.022 238.398 209.274C238.783 210.526 241.798 210.709 245.134 209.683Z" fill="#3D3E40"/>
<path d="M223.825 181.108C228.536 181.108 232.354 177.285 232.354 172.57C232.354 167.854 228.536 164.032 223.825 164.032C219.114 164.032 215.296 167.854 215.296 172.57C215.296 177.285 219.114 181.108 223.825 181.108Z" fill="white"/>
<path d="M223.825 175.416C225.395 175.416 226.668 174.142 226.668 172.57C226.668 170.998 225.395 169.724 223.825 169.724C222.255 169.724 220.982 170.998 220.982 172.57C220.982 174.142 222.255 175.416 223.825 175.416Z" fill="#3D3E40"/>
<path d="M195.119 163.712C190.541 155.67 194.02 145.05 202.888 139.992C211.756 134.935 222.656 137.355 227.234 145.397C231.811 153.44 226.478 158.566 217.61 163.624C208.742 168.681 199.696 171.755 195.119 163.712Z" fill="#4597E3"/>
<path d="M180.568 189.819C180.568 205.807 171.074 211.389 159.362 211.389C159.091 211.389 158.82 211.386 158.549 211.38C158.006 211.368 157.469 211.342 156.938 211.306C146.368 210.557 138.155 204.688 138.155 189.819C138.155 174.431 157.798 155.015 159.274 153.578L159.277 153.575C159.333 153.52 159.362 153.493 159.362 153.493C159.362 153.493 180.568 173.831 180.568 189.819Z" fill="#4597E3"/>
<path d="M158.589 208.943L166.345 198.094L158.57 210.134L158.549 211.38C158.006 211.368 157.469 211.342 156.938 211.306L157.774 195.311L157.767 195.187L157.782 195.163L157.86 193.653L150.065 181.583L157.885 192.52L157.903 192.84L158.535 180.755L151.861 168.283L158.616 178.634L159.274 153.578L159.277 153.493V153.575L159.167 173.333L165.811 165.501L159.14 175.035L158.964 185.856L165.167 175.471L158.938 187.448L158.84 193.464L167.846 179.01L158.806 195.563L158.589 208.943Z" fill="#3D3E40"/>
<path d="M263.967 196.487C263.967 213.903 253.625 219.985 240.865 219.985C240.57 219.985 240.274 219.981 239.98 219.975C239.389 219.962 238.803 219.934 238.225 219.894C226.709 219.079 217.763 212.685 217.763 196.487C217.763 179.724 239.162 158.572 240.769 157.007L240.772 157.004C240.834 156.943 240.865 156.914 240.865 156.914C240.865 156.914 263.967 179.07 263.967 196.487Z" fill="#4597E3"/>
<path d="M240.023 217.32L248.473 205.502L240.002 218.618L239.98 219.975C239.389 219.962 238.803 219.934 238.225 219.894L239.135 202.469L239.128 202.334L239.144 202.309L239.23 200.663L230.738 187.514L239.256 199.429L239.276 199.778L239.964 186.613L232.694 173.026L240.053 184.302L240.769 157.007L240.772 156.914V157.004L240.653 178.528L247.89 169.995L240.623 180.382L240.432 192.17L247.189 180.857L240.403 193.904L240.297 200.457L250.107 184.712L240.26 202.744L240.023 217.32Z" fill="#3D3E40"/>
<path d="M226.662 193.756C227.589 191.799 223.293 187.817 217.066 184.86C210.84 181.904 205.04 181.094 204.113 183.05C203.186 185.007 207.482 188.99 213.709 191.946C219.936 194.903 225.735 195.713 226.662 193.756Z" fill="#3D3E40"/>
<path d="M34.5845 191.469C35.3894 189.459 30.8562 185.749 24.4594 183.182C18.0626 180.616 12.2244 180.165 11.4195 182.175C10.6146 184.185 15.1477 187.895 21.5446 190.462C27.9414 193.029 33.7796 193.48 34.5845 191.469Z" fill="#3D3E40"/>
</g>
<defs>
<clipPath id="clip0">
<rect width="354" height="246" fill="white"/>
</clipPath>
</defs>
</svg>
