<svg width="358" height="162" viewBox="0 0 358 162" fill="none" xmlns="http://www.w3.org/2000/svg">
<g clip-path="url(#clip0)">
<path d="M323.662 65.2437H312.842V102.76H323.662V65.2437Z" fill="#E6E9ED"/>
<path d="M330.808 95.7023L304.491 64.3433L251.666 64.827L219.622 96.0901L220.269 96.5069H220.038V161.535H330.737V96.5069L330.808 95.7023Z" fill="#E6E9ED"/>
<path d="M304.519 64.4099L271.642 103.018V161.535H330.737V95.6731L304.519 64.4099Z" fill="#D0D4D9"/>
<path d="M307.432 129.174H295.363V139.859H307.432V129.174Z" fill="#3D3E40"/>
<path d="M307.432 110.68H295.363V121.195H307.432V110.68Z" fill="#3D3E40"/>
<path d="M307.432 129.174H295.363V139.859H307.432V129.174Z" fill="white"/>
<path d="M307.432 110.68H295.363V121.195H307.432V110.68Z" fill="white"/>
<path d="M253.798 126.339H241.729V137.024H253.798V126.339Z" fill="white"/>
<path d="M253.798 107.844H241.729V118.36H253.798V107.844Z" fill="white"/>
<path d="M238.276 65.2437H227.455V102.76H238.276V65.2437Z" fill="#E6E9ED"/>
<path d="M245.421 95.7023L219.105 64.3433L166.28 64.827L134.235 96.0901L134.883 96.5069H134.651V161.535H245.351V96.5069L245.421 95.7023Z" fill="#E6E9ED"/>
<path d="M219.132 64.4099L186.255 103.018V161.535H245.351V95.6731L219.132 64.4099Z" fill="#D0D4D9"/>
<path d="M222.045 129.174H209.977V139.859H222.045V129.174Z" fill="#3D3E40"/>
<path d="M222.045 110.68H209.977V121.195H222.045V110.68Z" fill="#3D3E40"/>
<path d="M222.045 129.174H209.977V139.859H222.045V129.174Z" fill="white"/>
<path d="M222.045 110.68H209.977V121.195H222.045V110.68Z" fill="white"/>
<path d="M168.411 126.339H156.342V137.024H168.411V126.339Z" fill="white"/>
<path d="M168.411 107.844H156.342V118.36H168.411V107.844Z" fill="white"/>
<path d="M150.845 32.8667H136.387V82.9971H150.845V32.8667Z" fill="#E6E9ED"/>
<path d="M160.393 73.5662L125.228 31.6633L54.641 32.3095L11.8218 74.0848L12.6868 74.6418H12.3779V161.534H160.299V74.6418L160.393 73.5662Z" fill="#E6E9ED"/>
<path d="M125.265 31.7524L81.3333 83.3418V161.534H160.299V73.5278L125.265 31.7524Z" fill="#D0D4D9"/>
<path d="M129.157 118.293H113.031V132.57H129.157V118.293Z" fill="#3D3E40"/>
<path d="M129.157 93.5801H113.031V107.631H129.157V93.5801Z" fill="#3D3E40"/>
<path d="M129.157 118.293H113.031V132.57H129.157V118.293Z" fill="white"/>
<path d="M129.157 93.5801H113.031V107.631H129.157V93.5801Z" fill="white"/>
<path d="M57.4892 114.504H41.3624V128.782H57.4892V114.504Z" fill="white"/>
<path d="M57.4892 89.7917H41.3624V103.843H57.4892V89.7917Z" fill="white"/>
<path d="M345.834 161.214H0V161.933H345.834V161.214Z" fill="#3D3E40"/>
<path d="M54.4868 147.999C60.2525 147.999 64.9266 138.446 64.9266 126.662C64.9266 114.879 60.2525 105.326 54.4868 105.326C48.721 105.326 44.0469 114.879 44.0469 126.662C44.0469 138.446 48.721 147.999 54.4868 147.999Z" fill="#3D3E40"/>
<path d="M55.4509 161.587C51.2696 136.459 55.4088 111.422 55.4511 111.172L56.2644 111.31C56.2223 111.558 52.1069 136.464 56.2646 161.451L55.4509 161.587Z" fill="#4597E3"/>
<path d="M63.6782 122.074L54.2377 127.132L54.6268 127.861L64.0673 122.803L63.6782 122.074Z" fill="#4597E3"/>
<path d="M44.6633 124.608L44.2739 125.337L53.7133 130.397L54.1026 129.669L44.6633 124.608Z" fill="#4597E3"/>
<path d="M29.4028 135.488C40.68 135.488 49.822 116.804 49.822 93.7567C49.822 70.709 40.68 52.0251 29.4028 52.0251C18.1256 52.0251 8.98364 70.709 8.98364 93.7567C8.98364 116.804 18.1256 135.488 29.4028 135.488Z" fill="#4597E3"/>
<path d="M31.6773 162C23.5101 112.917 31.5949 64.0136 31.6775 63.5254L32.4908 63.6634C32.4084 64.1504 24.3474 112.923 32.491 161.864L31.6773 162Z" fill="#3D3E40"/>
<path d="M47.5662 85.1314L29.1013 95.0242L29.4905 95.7529L47.9554 85.8601L47.5662 85.1314Z" fill="#3D3E40"/>
<path d="M10.0032 90.0871L9.61389 90.8157L28.0761 100.714L28.4654 99.9849L10.0032 90.0871Z" fill="#3D3E40"/>
<path d="M77.7641 125.746C93.196 125.746 105.706 100.179 105.706 68.6396C105.706 37.1006 93.196 11.5332 77.7641 11.5332C62.3321 11.5332 49.822 37.1006 49.822 68.6396C49.822 100.179 62.3321 125.746 77.7641 125.746Z" fill="#4597E3"/>
<path d="M81.0264 162C69.8544 94.8591 80.9136 27.9634 81.0266 27.2957L81.8399 27.4336C81.7271 28.1002 70.6917 94.8644 81.8401 161.864L81.0264 162Z" fill="#3D3E40"/>
<path d="M102.691 56.9704L77.4232 70.5078L77.8124 71.2365L103.08 57.6991L102.691 56.9704Z" fill="#3D3E40"/>
<path d="M51.1456 63.7521L50.7562 64.4807L76.0204 78.0248L76.4097 77.2962L51.1456 63.7521Z" fill="#3D3E40"/>
<path d="M312.497 147.999C318.263 147.999 322.937 138.446 322.937 126.662C322.937 114.879 318.263 105.326 312.497 105.326C306.731 105.326 302.057 114.879 302.057 126.662C302.057 138.446 306.731 147.999 312.497 147.999Z" fill="#3D3E40"/>
<path d="M311.533 161.587C315.714 136.459 311.575 111.422 311.533 111.172L310.719 111.31C310.762 111.558 314.877 136.464 310.719 161.451L311.533 161.587Z" fill="#4597E3"/>
<path d="M303.306 122.074L302.917 122.803L312.357 127.861L312.746 127.132L303.306 122.074Z" fill="#4597E3"/>
<path d="M322.32 124.608L312.881 129.669L313.27 130.397L322.71 125.337L322.32 124.608Z" fill="#4597E3"/>
<path d="M337.581 135.488C348.858 135.488 358 116.804 358 93.7567C358 70.709 348.858 52.0251 337.581 52.0251C326.304 52.0251 317.162 70.709 317.162 93.7567C317.162 116.804 326.304 135.488 337.581 135.488Z" fill="#4597E3"/>
<path d="M335.306 162C343.474 112.917 335.389 64.0136 335.306 63.5254L334.493 63.6634C334.575 64.1504 342.636 112.923 334.493 161.864L335.306 162Z" fill="#3D3E40"/>
<path d="M319.417 85.1314L319.028 85.8601L337.493 95.7529L337.882 95.0241L319.417 85.1314Z" fill="#3D3E40"/>
<path d="M356.98 90.087L338.518 99.9849L338.907 100.713L357.37 90.8156L356.98 90.087Z" fill="#3D3E40"/>
<path d="M289.22 125.746C304.652 125.746 317.162 100.179 317.162 68.6396C317.162 37.1006 304.652 11.5332 289.22 11.5332C273.788 11.5332 261.278 37.1006 261.278 68.6396C261.278 100.179 273.788 125.746 289.22 125.746Z" fill="#4597E3"/>
<path d="M285.957 162C297.129 94.8591 286.07 27.9634 285.957 27.2957L285.144 27.4336C285.257 28.1002 296.292 94.8644 285.144 161.864L285.957 162Z" fill="#3D3E40"/>
<path d="M264.293 56.9705L263.904 57.6992L289.171 71.2366L289.56 70.5079L264.293 56.9705Z" fill="#3D3E40"/>
<path d="M315.838 63.7518L290.574 77.2959L290.963 78.0245L316.227 64.4804L315.838 63.7518Z" fill="#3D3E40"/>
<path d="M211.531 36.4622L214.833 33.8164C212.268 33.5328 211.214 34.9344 210.782 36.0438C208.778 35.2101 206.596 36.3027 206.596 36.3027L213.204 38.7056C212.87 37.8137 212.29 37.0355 211.531 36.4622V36.4622Z" fill="#3D3E40"/>
<path d="M130.808 13.1043L134.111 10.4584C131.545 10.1749 130.491 11.5765 130.059 12.6859C128.055 11.8521 125.873 12.9448 125.873 12.9448L132.481 15.3477C132.148 14.4558 131.567 13.6776 130.808 13.1043V13.1043Z" fill="#3D3E40"/>
<path d="M262.476 2.68291L265.778 0.0370537C263.213 -0.246477 262.159 1.1551 261.727 2.26446C259.723 1.43076 257.541 2.52336 257.541 2.52336L264.149 4.92626C263.815 4.03438 263.235 3.25618 262.476 2.68291V2.68291Z" fill="#3D3E40"/>
<path d="M269.144 157.057C268.266 157.057 267.404 157.288 266.644 157.729C265.872 157.029 264.914 156.57 263.886 156.405C262.859 156.241 261.805 156.379 260.855 156.802C259.904 157.226 259.096 157.917 258.529 158.791C257.963 159.666 257.662 160.686 257.663 161.728H274.149C274.059 160.46 273.493 159.273 272.564 158.406C271.635 157.539 270.413 157.057 269.144 157.057V157.057Z" fill="#3D3E40"/>
<path d="M101.6 157.057C100.722 157.057 99.8593 157.288 99.0993 157.729C98.3274 157.029 97.3695 156.57 96.3419 156.405C95.3143 156.241 94.2611 156.379 93.3102 156.802C92.3593 157.226 91.5516 157.917 90.9852 158.791C90.4187 159.666 90.1179 160.686 90.1191 161.728H106.604C106.514 160.46 105.948 159.273 105.02 158.406C104.091 157.539 102.869 157.057 101.6 157.057V157.057Z" fill="#3D3E40"/>
<path d="M187.345 157.057C186.467 157.057 185.605 157.288 184.845 157.729C184.073 157.029 183.115 156.57 182.087 156.405C181.06 156.241 180.006 156.379 179.056 156.802C178.105 157.226 177.297 157.917 176.731 158.791C176.164 159.666 175.863 160.686 175.865 161.728H192.35C192.26 160.46 191.694 159.273 190.765 158.406C189.836 157.539 188.614 157.057 187.345 157.057V157.057Z" fill="#3D3E40"/>
<path d="M169.252 145.261H121.691V146.798H129.108V161.397H130.642V146.798H159.533V161.397H161.067V146.798H169.252V145.261Z" fill="#3D3E40"/>
<path d="M169.345 140.664H121.784V142.2H169.345V140.664Z" fill="#3D3E40"/>
<path d="M169.345 136.822H121.784V138.359H169.345V136.822Z" fill="#3D3E40"/>
<path d="M169.345 132.98H121.784V134.517H169.345V132.98Z" fill="#3D3E40"/>
<path d="M243.517 145.261H195.955V146.798H203.373V161.397H204.907V146.798H233.798V161.397H235.332V146.798H243.517V145.261Z" fill="#3D3E40"/>
<path d="M243.61 140.664H196.049V142.2H243.61V140.664Z" fill="#3D3E40"/>
<path d="M243.61 136.822H196.049V138.359H243.61V136.822Z" fill="#3D3E40"/>
<path d="M243.61 132.98H196.049V134.517H243.61V132.98Z" fill="#3D3E40"/>
</g>
<defs>
<clipPath id="clip0">
<rect width="358" height="162" fill="white"/>
</clipPath>
</defs>
</svg>
